<svg width="375" height="83" viewBox="0 0 375 83" fill="none" xmlns="http://www.w3.org/2000/svg">
<g clip-path="url(#clip0)">
<path d="M196.807 41.5C196.971 64.0223 178.303 83 155.201 83C132.372 83 113.431 64.4586 113.431 41.4454C113.485 18.1051 132.81 -0.21816 155.584 -2.5651e-05C178.248 0.218108 196.971 18.8686 196.807 41.5ZM188.595 41.5C188.595 23.1767 173.595 8.18 155.201 8.18C137.026 8.18 121.697 22.6314 121.697 41.5C121.697 60.3686 137.08 74.82 155.201 74.82C173.595 74.82 188.595 59.8232 188.595 41.5Z" fill="white"/>
<path d="M72.2628 36.3739C71.8796 36.8647 71.7701 37.2464 71.6606 37.6282C70.2372 41.6091 68.8686 45.5901 67.281 49.5165C66.7883 50.7162 67.0073 50.6071 65.6934 50.6071C64.4891 50.6071 63.3394 50.6071 62.135 50.6071C61.0401 50.6071 61.0401 50.6071 60.6569 49.571C59.1241 45.6991 57.8102 41.8272 56.3869 37.9008C56.2226 37.41 56.1131 36.8102 55.6752 36.2648C55.6752 37.3555 55.6204 38.2826 55.6752 39.2096C56.0584 45.0447 56.0584 50.8798 56.0584 56.7149C56.0584 57.8056 56.0584 57.8056 54.9635 57.8056C53.7591 57.8056 52.5 57.8056 51.2956 57.8056C50.365 57.8056 50.365 57.751 50.365 56.824C50.365 56.5513 50.365 56.2786 50.365 56.0605C50.365 46.2445 50.365 36.483 50.365 26.6669C50.365 26.3397 50.4197 26.0671 50.365 25.7399C50.2555 25.0309 50.6387 24.8673 51.2956 24.8673C52.6095 24.9219 53.9234 24.9219 55.2372 24.8673C56.0037 24.8128 56.3869 25.0855 56.6606 25.8489C58.9599 31.5749 61.5876 37.1919 63.6131 43.027C63.6679 43.2451 63.7774 43.4087 63.8869 43.6269C64.2701 43.4633 64.2701 43.0815 64.3796 42.8088C66.5146 37.0828 69.0329 31.4659 71.3321 25.7399C71.6058 25.14 71.8796 24.8673 72.5912 24.8673C74.0146 24.9219 75.4927 24.9219 76.9161 24.8673C77.4635 24.8673 77.7372 25.0855 77.6825 25.6308C77.6825 25.9035 77.6825 26.1761 77.6825 26.3943C77.6825 36.3194 77.6825 46.2445 77.6825 56.1696C77.6825 56.4968 77.6825 56.7694 77.6825 57.0966C77.6825 57.5874 77.4635 57.8056 76.9708 57.8056C75.5475 57.8056 74.0693 57.8056 72.646 57.8056C72.1533 57.8056 71.8796 57.642 71.9343 57.1512C71.9343 56.824 71.9343 56.5513 71.9343 56.2241C71.8796 50.0618 71.9343 43.9541 72.2628 37.7918C72.3175 37.41 72.2628 36.9738 72.2628 36.3739Z" fill="white"/>
<path d="M0 41.2819C0 38.9915 0 36.7556 0 34.4652C0 33.1019 0.218978 31.7931 0.60219 30.4843C1.64234 27.2668 3.88686 25.3036 7.17153 24.5947C9.14234 24.1584 11.0584 24.1584 13.0292 24.5947C15.7117 25.1945 17.6825 26.776 18.8321 29.2845C19.4891 30.7569 19.8723 32.3384 19.927 33.9744C19.927 34.4652 19.7628 34.6834 19.2701 34.6834C17.792 34.6834 16.3139 34.6834 14.781 34.6834C14.2883 34.6834 14.1241 34.4652 14.0693 33.9744C14.0146 33.2655 13.8504 32.6111 13.5766 31.9567C13.1387 30.9205 12.3723 30.3207 11.2774 30.048C10.3467 29.8299 9.4708 29.8844 8.54015 30.1571C7.55474 30.4297 6.84307 31.0841 6.45985 32.0112C6.13139 32.7202 5.96715 33.4836 5.96715 34.3016C5.96715 38.937 5.96715 43.6269 5.96715 48.2622C5.96715 48.8621 6.07664 49.4619 6.24088 50.0618C6.67883 51.5887 7.77372 52.4613 9.36131 52.6249C9.74452 52.6794 10.1277 52.6794 10.5657 52.6794C12.7007 52.5703 14.0146 51.4251 14.2883 49.3529C14.5073 47.9895 14.3431 46.6807 14.3978 45.3174C14.3978 44.8266 14.1241 44.7721 13.6861 44.7721C12.646 44.7721 11.6058 44.7721 10.5109 44.7721C10.0182 44.7721 9.79927 44.6085 9.79927 44.0631C9.79927 42.8088 9.79927 41.5546 9.79927 40.3003C9.79927 39.8095 9.9635 39.5914 10.4562 39.5914C13.4124 39.5914 16.4234 39.5914 19.3796 39.5914C19.8175 39.5914 20.0365 39.7004 20.0365 40.1912C19.927 43.5723 20.3102 47.0079 19.7628 50.389C18.9963 55.297 15.5474 58.2964 10.5657 58.3509C9.52555 58.3509 8.4854 58.3509 7.44526 58.1328C3.39416 57.3693 0.766423 54.7517 0.0547445 50.6617C0.109489 49.7346 0 48.8075 0 47.8259C0 45.6446 0 43.4632 0 41.2819Z" fill="white"/>
<path d="M329.179 58.1873C328.029 58.1873 326.989 58.1873 325.949 58.1873C325.511 58.1873 325.292 58.0237 325.347 57.5874C325.347 57.3147 325.347 57.0421 325.347 56.8239C325.347 46.7898 325.347 36.8101 325.347 26.776C325.347 26.5578 325.347 26.3397 325.347 26.1216C325.237 25.4126 325.62 25.1945 326.277 25.249C326.989 25.3036 327.701 25.3036 328.358 25.249C329.179 25.14 329.562 25.5217 329.891 26.2852C332.464 32.7201 335.365 38.9915 337.555 45.5355C337.555 45.59 337.61 45.6991 337.664 45.7536C338.047 45.59 338.048 45.2083 338.157 44.9356C340.402 38.5552 343.248 32.3384 345.766 26.067C346.04 25.4672 346.369 25.1945 347.026 25.249C347.792 25.3036 348.613 25.3036 349.38 25.249C349.927 25.249 350.201 25.3581 350.146 25.958C350.146 26.1216 350.146 26.2852 350.146 26.5033C350.146 36.7011 350.146 46.8988 350.146 57.0966C350.146 57.4238 350.201 57.8055 349.982 58.2418C348.942 58.2418 347.847 58.2418 346.752 58.2418C346.369 58.2418 346.204 58.0782 346.204 57.6965C346.204 57.4238 346.204 57.1511 346.204 56.933C346.259 49.4619 346.04 42.0454 346.478 34.5743C346.478 34.3016 346.478 33.9744 346.478 33.6472C346.04 33.8653 346.04 34.2471 345.931 34.5197C343.96 39.5368 342.044 44.5539 340.073 49.6255C339.69 50.6617 339.635 50.6617 338.485 50.6617C337.61 50.6617 336.569 50.8798 335.912 50.5526C335.201 50.1709 335.146 49.0802 334.818 48.2622C333.011 43.5723 331.15 38.8279 329.343 34.138C329.234 33.9199 329.179 33.6472 328.85 33.4291C329.398 41.6091 329.069 49.8437 329.179 58.1873Z" fill="#0B0909"/>
<path d="M45.8759 57.8056C43.9599 57.8056 42.1533 57.8056 40.4015 57.8056C39.854 57.8056 39.7445 57.4784 39.6898 57.0421C39.3613 55.5697 39.0329 54.1518 38.7591 52.6794C38.6496 52.025 38.3759 51.7524 37.6642 51.7524C35.6934 51.8069 33.7226 51.8069 31.7518 51.7524C31.0401 51.7524 30.7664 52.025 30.6569 52.6794C30.3832 54.1518 30 55.5697 29.7263 56.9876C29.6168 57.4239 29.5073 57.6965 29.0146 57.6965C27.208 57.6965 25.4562 57.6965 23.5949 57.6965C23.6496 56.4423 24.0329 55.4061 24.3066 54.3154C26.5511 44.9902 28.9051 35.6104 31.2044 26.1761C31.5329 24.9219 31.5329 24.9219 32.792 24.9219C34.1058 24.9219 35.4197 24.9219 36.7336 24.9219C37.7737 24.9219 37.7737 24.9219 38.0474 25.958C39.1423 30.3752 40.1825 34.7379 41.2774 39.1551C42.7007 44.9902 44.1788 50.8253 45.6022 56.6604C45.7117 56.9331 45.7664 57.2603 45.8759 57.8056ZM34.7628 32.7202C34.708 32.7202 34.5985 32.7202 34.5438 32.7202C34.2701 34.4107 34.0511 36.1558 33.7774 37.8463C33.2847 40.4094 32.7372 42.9179 32.2445 45.481C32.0803 46.2445 32.0803 46.299 32.9015 46.299C34.1058 46.299 35.365 46.299 36.5693 46.299C37.3358 46.299 37.3905 46.2445 37.2263 45.481C36.7336 42.9725 36.0766 40.5185 35.6934 37.9554C35.365 36.2103 35.0365 34.4652 34.7628 32.7202Z" fill="white"/>
<path d="M104.398 57.8055C102.591 57.8055 100.839 57.8055 99.0328 57.8055C98.4854 57.8055 98.4307 57.4238 98.3212 57.042C97.9927 55.6787 97.719 54.3154 97.3905 52.952C97.1168 51.8068 97.1168 51.8068 95.9672 51.8068C94.1058 51.8068 92.1898 51.8068 90.3285 51.8068C89.6715 51.8068 89.3978 52.025 89.2883 52.6248C89.0146 54.0972 88.6314 55.5151 88.3577 56.933C88.2482 57.5874 87.9197 57.8055 87.3175 57.751C85.8942 57.6965 84.4161 57.751 82.9927 57.751C82.1715 57.751 82.1168 57.6964 82.3358 56.8239C83.2117 53.3338 84.0876 49.7891 84.9088 46.2989C86.5511 39.5913 88.2482 32.8837 89.8905 26.1761C89.9453 25.9034 90.0547 25.6853 90.1095 25.4126C90.1642 24.9763 90.3832 24.8127 90.8212 24.8127C92.5182 24.8127 94.2153 24.8127 95.9124 24.8127C96.6241 24.8127 96.6241 25.3035 96.7336 25.7398C97.719 29.7753 98.7044 33.7562 99.6898 37.7917C101.277 44.1176 102.81 50.4435 104.343 56.7694C104.453 57.0966 104.562 57.3147 104.398 57.8055ZM90.8212 46.2989C92.2993 46.2989 93.7226 46.2989 95.146 46.2989C95.9672 46.2989 96.0219 46.1899 95.8577 45.3719C95.6387 44.2267 95.365 43.0815 95.0912 41.9363C94.3796 38.8279 93.9416 35.6649 93.3942 32.3929C92.5183 37.0828 91.6971 41.6091 90.8212 46.2989Z" fill="white"/>
<path d="M277.555 41.7181C277.555 36.701 277.555 31.6839 277.555 26.6668C277.555 26.3396 277.555 26.067 277.555 25.7398C277.555 25.358 277.719 25.1944 278.102 25.1944C281.332 25.249 284.562 24.9763 287.792 25.4126C291.898 26.0124 294.799 29.0663 295.237 33.2109C295.292 33.4835 295.292 33.7562 295.292 33.9743C295.401 39.2096 295.566 44.4448 295.237 49.6255C294.909 54.6425 291.515 57.86 286.423 58.0236C283.796 58.1327 281.168 58.0781 278.54 58.0781C277.5 58.0781 277.445 58.0781 277.445 57.042C277.5 51.9704 277.555 46.8442 277.555 41.7181ZM281.442 41.609C281.442 45.59 281.442 49.5164 281.442 53.4973C281.442 54.4244 281.442 54.4244 282.372 54.4789C283.686 54.4789 285 54.5335 286.314 54.4244C288.832 54.2608 290.584 52.8429 291.241 50.4435C291.46 49.6255 291.569 48.7529 291.569 47.8804C291.569 43.7904 291.569 39.7004 291.569 35.6103C291.569 34.9014 291.515 34.1925 291.405 33.5381C291.022 30.975 289.27 29.339 286.642 29.0663C285.274 28.9027 283.96 28.9573 282.591 28.9573C281.496 28.9573 281.496 28.9573 281.496 30.0479C281.442 33.8653 281.442 37.7371 281.442 41.609Z" fill="#0B0909"/>
<path d="M226.697 58.1872C225.493 58.1872 224.398 58.1872 223.303 58.1872C222.755 58.1872 222.591 57.9691 222.427 57.4783C221.989 55.6241 221.551 53.77 221.113 51.9159C221.004 51.316 220.73 51.0433 220.073 51.0979C217.445 51.1524 214.818 51.1524 212.19 51.0979C211.533 51.0979 211.259 51.2615 211.15 51.9159C210.766 53.77 210.274 55.5696 209.836 57.3692C209.672 58.0236 209.398 58.2963 208.686 58.2418C207.701 58.1872 206.661 58.2418 205.62 58.2418C205.73 56.933 206.168 55.7877 206.442 54.6425C208.85 45.2628 211.314 35.883 213.723 26.4487C214.051 25.3035 214.051 25.3035 215.255 25.3035C215.912 25.3035 216.569 25.3581 217.226 25.3035C217.993 25.1944 218.321 25.5216 218.485 26.2306C218.978 28.1938 219.471 30.2115 220.018 32.1747C222.208 40.682 224.398 49.1892 226.588 57.6964C226.642 57.751 226.642 57.86 226.697 58.1872ZM220.018 47.3896C219.526 45.4264 219.088 43.5722 218.65 41.6636C218.212 39.8094 217.719 37.9553 217.281 36.1011C216.898 34.3015 216.515 32.5019 216.186 30.7023C215.146 36.3738 213.449 41.8272 212.245 47.3896C214.872 47.3896 217.391 47.3896 220.018 47.3896Z" fill="#0B0909"/>
<path d="M251.277 58.1872C251.77 56.224 252.263 54.4789 252.701 52.7339C254.945 43.954 257.245 35.2286 259.489 26.4487C259.818 25.249 259.818 25.249 261.022 25.249C261.734 25.249 262.445 25.3035 263.102 25.249C263.814 25.1944 264.088 25.4671 264.252 26.1215C265.018 29.1209 265.785 32.1202 266.551 35.065C268.467 42.4816 270.383 49.8981 272.299 57.3147C272.354 57.5328 272.518 57.8055 272.299 58.1872C271.204 58.1872 270.055 58.1872 268.85 58.1872C268.303 58.1872 268.303 57.7509 268.193 57.3692C267.755 55.5696 267.318 53.8245 266.88 52.0249C266.661 51.0433 266.661 51.0433 265.62 51.0433C263.102 51.0433 260.639 51.0433 258.12 51.0433C257.135 51.0433 257.135 51.0433 256.861 52.0795C256.423 53.8245 255.985 55.5151 255.602 57.2601C255.438 57.9145 255.219 58.2417 254.507 58.1872C253.522 58.1327 252.482 58.1872 251.277 58.1872ZM262.117 31.3022C262.172 30.9205 262.226 30.5387 261.788 30.3206C261.569 30.6478 261.569 30.9205 261.624 31.2477C261.077 35.065 259.982 38.7733 259.106 42.5361C258.723 44.1176 258.339 45.699 257.956 47.2805C260.639 47.2805 263.157 47.2805 265.73 47.2805C265.237 45.3173 264.799 43.4086 264.361 41.5C263.595 38.1734 262.664 34.7923 262.117 31.3022Z" fill="#0B0909"/>
<path d="M302.628 25.249C302.901 25.249 303.066 25.1945 303.285 25.1945C307.993 25.1945 312.646 25.1945 317.354 25.1945C318.339 25.1945 318.394 25.1945 318.394 26.1761C318.394 27.0486 318.777 28.1393 318.175 28.6846C317.628 29.1754 316.588 28.8482 315.766 28.8482C312.974 28.8482 310.182 28.9027 307.391 28.8482C306.679 28.8482 306.515 29.0663 306.515 29.7207C306.569 32.7746 306.569 35.8285 306.515 38.8824C306.515 39.6458 306.843 39.7549 307.445 39.7004C310.401 39.7004 313.303 39.7004 316.259 39.7004C316.697 39.7004 317.135 39.5913 317.628 39.864C317.628 40.7365 317.628 41.6636 317.628 42.5361C317.628 43.0814 317.409 43.1905 316.916 43.1905C315.493 43.1905 314.124 43.1905 312.701 43.1905C310.894 43.1905 309.088 43.245 307.336 43.1905C306.679 43.1905 306.515 43.4086 306.515 44.0085C306.515 47.226 306.515 50.4435 306.515 53.6609C306.515 54.3153 306.734 54.479 307.336 54.479C310.73 54.479 314.069 54.479 317.464 54.479C317.792 54.479 318.066 54.479 318.394 54.479C318.777 54.479 318.996 54.588 318.996 54.9698C318.996 55.0243 318.996 55.0788 318.996 55.0788C318.996 56.0604 318.942 56.9875 318.942 57.9691C318.066 58.2963 317.135 58.1327 316.259 58.1327C312.044 58.1327 307.883 58.1327 303.668 58.1327C302.573 58.1327 302.682 58.0782 302.682 57.2602C302.682 46.7897 302.682 36.3738 302.682 25.9034C302.573 25.7398 302.628 25.5217 302.628 25.249Z" fill="#0B0909"/>
<path d="M245.201 34.5197C244.982 33.5926 244.927 32.7201 244.599 31.9021C243.504 28.6846 239.726 27.2668 236.77 28.9028C235.347 29.7208 234.635 31.0296 234.307 32.611C234.142 33.429 234.088 34.247 234.088 35.0651C234.088 39.4823 234.088 43.954 234.088 48.3712C234.088 49.5164 234.197 50.6616 234.58 51.6978C235.292 53.661 236.715 54.8062 238.85 55.0243C242.19 55.3515 244.38 53.7155 245.036 50.389C245.146 49.8982 245.201 49.4619 245.31 48.9166C246.405 48.9166 247.445 48.9166 248.485 48.9166C248.814 48.9166 249.142 48.9166 249.088 49.3528C248.814 52.7339 247.39 56.7694 243.066 58.1327C240.821 58.8417 238.467 58.8962 236.223 58.1873C232.664 57.042 230.912 54.4244 230.365 50.8798C230.201 49.8982 230.146 48.9166 230.146 47.8804C230.146 43.6268 230.146 39.3732 230.146 35.0651C230.146 33.8108 230.255 32.5565 230.584 31.3022C231.515 27.5394 233.869 25.1945 237.755 24.6492C240.985 24.2129 243.942 24.7582 246.296 27.2122C248.047 29.0664 248.595 31.3568 248.869 33.7562C248.923 34.247 248.704 34.3561 248.266 34.3561C247.281 34.5197 246.241 34.5197 245.201 34.5197Z" fill="#0B0909"/>
<path d="M355.128 25.249C356.223 25.249 357.372 25.3035 358.467 25.249C359.069 25.249 359.179 25.6853 359.288 26.067C360.164 28.5755 361.095 31.0841 361.971 33.5381C362.956 36.3193 363.942 39.1005 364.927 41.8817C365.31 41.6091 365.31 41.1728 365.474 40.8456C367.226 35.9921 368.978 31.0841 370.675 26.2306C370.949 25.5217 371.223 25.1399 372.044 25.249C372.974 25.3035 373.96 25.249 374.945 25.249C375.11 25.7398 374.836 26.1215 374.672 26.5033C372.208 32.9928 369.799 39.4277 367.336 45.9172C367.062 46.5716 366.953 47.226 366.953 47.9349C366.953 50.8798 366.953 53.8791 366.953 56.8239C366.953 57.2602 367.007 57.6964 366.843 58.1872C365.584 58.1872 364.325 58.1872 363.011 58.1872C363.011 55.3515 362.956 52.5703 363.011 49.7891C363.066 47.8804 362.737 46.1353 362.026 44.3357C359.726 38.5006 357.591 32.611 355.401 26.7759C355.292 26.2851 355.018 25.8489 355.128 25.249Z" fill="#0B0909"/>
<path d="M262.117 31.3023C261.953 31.3023 261.788 31.3023 261.624 31.3023C261.569 30.9751 261.569 30.6479 261.788 30.3752C262.226 30.5388 262.172 30.9206 262.117 31.3023Z" fill="#64B93A"/>
<path d="M164.507 36.2648C164.507 39.8095 164.507 43.2996 164.507 46.8443C164.507 47.935 164.507 47.935 163.467 47.935C161.442 47.935 159.471 47.935 157.445 47.935C156.515 47.935 156.46 47.935 156.46 47.0079C156.46 39.8095 156.46 32.5565 156.46 25.3581C156.46 24.7037 156.624 24.431 157.336 24.431C159.416 24.4856 161.551 24.431 163.631 24.431C164.507 24.431 164.507 24.4856 164.562 25.4126C164.562 28.6846 164.562 31.9567 164.562 35.1741C164.507 35.5559 164.507 35.9376 164.507 36.2648Z" fill="white"/>
<path d="M153.887 37.0828C153.887 40.3548 153.887 43.6268 153.887 46.8988C153.887 47.935 153.887 47.935 152.792 47.9895C150.821 47.9895 148.85 47.9895 146.88 47.9895C145.785 47.9895 145.785 47.9895 145.785 46.7898C145.785 42.8634 145.785 38.9369 145.785 35.0105C145.785 32.9383 145.785 30.8115 145.785 28.7392C145.785 27.7576 145.785 27.703 146.715 27.5394C148.796 27.1577 150.821 26.776 152.901 26.3942C153.832 26.2306 153.887 26.2306 153.887 27.1577C153.887 29.9935 153.887 32.8292 153.887 35.6649C153.887 36.1012 153.887 36.592 153.887 37.0828Z" fill="white"/>
<path d="M167.245 27.594C169.653 28.0303 172.117 28.4665 174.58 28.9028C174.963 28.9573 175.182 29.1755 175.182 29.6117C175.182 29.8299 175.182 30.048 175.182 30.2661C175.182 35.7195 175.182 41.1728 175.182 46.6262C175.182 46.8989 175.182 47.1715 175.182 47.3897C175.182 47.7714 174.963 47.935 174.635 47.935C172.336 47.935 169.982 47.935 167.682 47.935C167.299 47.935 167.08 47.7714 167.135 47.3897C167.135 47.3351 167.135 47.2806 167.135 47.2806C167.135 40.8456 167.135 34.4107 167.19 27.9212C167.135 27.8121 167.19 27.7576 167.245 27.594Z" fill="white"/>
<path d="M165.766 58.569C163.029 58.569 160.237 58.569 157.5 58.569C156.569 58.569 156.515 58.569 156.515 57.6419C156.515 55.5697 156.515 53.4429 156.515 51.3706C156.515 50.6616 156.788 50.498 157.445 50.498C163.029 50.498 168.668 50.498 174.252 50.498C175.182 50.498 175.237 50.498 175.237 51.4251C175.237 53.4974 175.237 55.6242 175.237 57.6965C175.237 58.4054 174.963 58.569 174.307 58.569C171.46 58.569 168.613 58.569 165.766 58.569Z" fill="white"/>
<path d="M143.157 38.9914C143.157 41.609 143.157 44.2266 143.157 46.8443C143.157 47.9349 143.157 47.9349 142.117 47.9349C140.036 47.9349 138.011 47.9349 135.931 47.9349C135.219 47.9349 135.055 47.7168 135.055 47.0079C135.055 41.9908 135.055 36.9737 135.055 32.0111C135.055 31.5203 135.164 31.1931 135.712 31.1386C137.956 30.7569 140.201 30.3206 142.391 29.9389C143.047 29.8298 143.102 30.157 143.102 30.6478C143.157 33.429 143.157 36.2102 143.157 38.9914Z" fill="white"/>
</g>
<defs>
<clipPath id="clip0">
<rect width="375" height="83" fill="white"/>
</clipPath>
</defs>
</svg>
